<?xml version="1.0" encoding="UTF-8"?>
<svg version="1.1" xmlns="http://www.w3.org/2000/svg" width="500" height="500">
<path d="M0 0 C0.58362305 0.36029297 1.16724609 0.72058594 1.76855469 1.09179688 C10.16297941 6.33340649 17.85607597 12.12816054 25.29296875 18.65234375 C27.88028556 20.96977287 27.88028556 20.96977287 30.36328125 22.69140625 C30.90339844 23.12324219 31.44351562 23.55507812 32 24 C32 24.66 32 25.32 32 26 C32.66 26 33.32 26 34 26 C34 26.66 34 27.32 34 28 C34.66 28 35.32 28 36 28 C36 28.66 36 29.32 36 30 C36.66 30 37.32 30 38 30 C40.58281138 32.42872321 42.75570476 35.26112858 45 38 C45.75796875 38.92167969 46.5159375 39.84335938 47.296875 40.79296875 C54.38025432 49.69230996 60.35095892 59.13610762 66 69 C66.36867188 69.63711914 66.73734375 70.27423828 67.1171875 70.93066406 C77.11885422 88.51818139 83.53081115 108.9598869 86 129 C86.18046875 130.14597656 86.3609375 131.29195312 86.546875 132.47265625 C87.36990862 139.19058717 87.24272947 145.99124203 87.25 152.75 C87.25133942 153.48343628 87.25267883 154.21687256 87.25405884 154.97253418 C87.24934481 166.8902448 86.42216508 178.30598521 84 190 C83.69255859 191.67835938 83.69255859 191.67835938 83.37890625 193.390625 C79.85522989 210.81203108 72.68333642 226.6155478 64 242 C63.29118254 243.2848893 62.58281669 244.57002788 61.875 245.85546875 C58.46627409 251.91305875 58.46627409 251.91305875 57 254 C56.34 254 55.68 254 55 254 C54.71125 254.763125 54.4225 255.52625 54.125 256.3125 C53 259 53 259 51 262 C50.34 262 49.68 262 49 262 C48.6596875 263.051875 48.6596875 263.051875 48.3125 264.125 C46.66158712 267.74128535 44.7091165 270.08769976 42 273 C41.34 273 40.68 273 40 273 C40 273.66 40 274.32 40 275 C39.34 275 38.68 275 38 275 C37.731875 275.598125 37.46375 276.19625 37.1875 276.8125 C36.00082594 278.99847854 34.90400887 280.41332594 33 282 C32.34 282 31.68 282 31 282 C31 282.66 31 283.32 31 284 C28.93290931 285.79248448 26.85972811 287.46823484 24.6875 289.125 C23.73496338 289.86097412 23.73496338 289.86097412 22.76318359 290.61181641 C-10.57876222 316.26011031 -47.95593464 331.43270945 -90.375 331.375 C-91.06121429 331.37445618 -91.74742859 331.37391235 -92.45443726 331.37335205 C-130.43453789 331.2364513 -169.02308417 318.68605273 -199 295 C-199.88300781 294.30777344 -200.76601562 293.61554688 -201.67578125 292.90234375 C-204.13368511 290.95422736 -206.57189996 288.98507828 -209 287 C-209.61101562 286.50242187 -210.22203125 286.00484375 -210.8515625 285.4921875 C-216.2225537 281.07368735 -216.2225537 281.07368735 -218 279 C-218 278.34 -218 277.68 -218 277 C-218.66 277 -219.32 277 -220 277 C-220 276.34 -220 275.68 -220 275 C-220.66 275 -221.32 275 -222 275 C-223.60634015 273.26608049 -225.1375287 271.461909 -226.625 269.625 C-227.85089844 268.12839844 -227.85089844 268.12839844 -229.1015625 266.6015625 C-231 264 -231 264 -231 262 C-231.66 262 -232.32 262 -233 262 C-234.14160156 260.59814453 -234.14160156 260.59814453 -235.390625 258.6328125 C-235.84969238 257.91770508 -236.30875977 257.20259766 -236.78173828 256.46582031 C-237.26626465 255.69334961 -237.75079102 254.92087891 -238.25 254.125 C-238.74870605 253.33706055 -239.24741211 252.54912109 -239.76123047 251.73730469 C-240.74661066 250.1767711 -241.72895301 248.61431449 -242.70800781 247.04980469 C-243.69741464 245.48006551 -244.71398662 243.92741921 -245.7421875 242.3828125 C-255.13209198 227.90007847 -261.0692932 210.29576534 -265.125 193.625 C-265.36343628 192.65385254 -265.36343628 192.65385254 -265.60668945 191.66308594 C-268.45046889 179.40143981 -269.41010304 167.17167893 -269.375 154.625 C-269.37445618 153.88699158 -269.37391235 153.14898315 -269.37335205 152.38861084 C-269.22165106 107.29215312 -251.73924599 64.96865057 -220.93359375 32.14453125 C-218.96566437 30.15366313 -218.96566437 30.15366313 -218 28 C-217.34 28 -216.68 28 -216 28 C-216 27.34 -216 26.68 -216 26 C-214.42578125 24.4140625 -214.42578125 24.4140625 -212.3125 22.625 C-211.58417969 22.00753906 -210.85585937 21.39007813 -210.10546875 20.75390625 C-209.41066406 20.17511719 -208.71585938 19.59632812 -208 19 C-207.05125 18.195625 -206.1025 17.39125 -205.125 16.5625 C-203 15 -203 15 -201 15 C-201 14.34 -201 13.68 -201 13 C-199.07199826 11.48902685 -197.15640968 10.10943207 -195.125 8.75 C-194.52856689 8.34595947 -193.93213379 7.94191895 -193.31762695 7.52563477 C-179.4626208 -1.7908866 -164.79513551 -9.5172274 -149 -15 C-148.01257813 -15.34675781 -147.02515625 -15.69351563 -146.0078125 -16.05078125 C-98.46185664 -31.71796009 -42.82818121 -26.4427293 0 0 Z " fill="#FDFDFD" transform="translate(341,95)"/>
<path d="M0 0 C3.578705 1.46294314 5.26170173 3.30395608 7.5625 6.375 C10.67522923 10.38863045 13.92547473 14.21198855 17.375 17.9375 C18.07496094 18.69752319 18.07496094 18.69752319 18.7890625 19.47290039 C21.0289716 21.89754029 23.28728075 24.29905098 25.57421875 26.6796875 C32.38083199 33.88166132 37.80180924 41.60208713 43 50 C43.54551514 50.88026855 43.54551514 50.88026855 44.10205078 51.77832031 C65.22828251 86.30952142 73.22294185 125.32251611 63.875 164.875 C60.6726081 177.69691298 54.91330558 189.25240852 49 201 C48.34 201 47.68 201 47 201 C46.773125 201.84820312 46.54625 202.69640625 46.3125 203.5703125 C44.7660066 207.61144703 42.66473727 210.50981751 40 213.875 C39.54882812 214.46796875 39.09765625 215.0609375 38.6328125 215.671875 C37.47547402 217.157925 36.24300269 218.58482464 35 220 C34.34 220 33.68 220 33 220 C32.75765625 220.5775 32.5153125 221.155 32.265625 221.75 C28.91363053 227.70910128 21.92913346 232.69071621 16 236 C14.68 236 13.36 236 12 236 C11.21670663 238.79185806 10.8572482 241.32165488 10.79467773 244.21777344 C10.77473251 245.03832214 10.75478729 245.85887085 10.73423767 246.70428467 C10.71752518 247.58046448 10.70081268 248.45664429 10.68359375 249.359375 C10.6524221 250.71594208 10.6524221 250.71594208 10.62062073 252.09991455 C10.5553406 254.98320055 10.49634048 257.8665761 10.4375 260.75 C10.39429429 262.70704044 10.35067935 264.66407188 10.30664062 266.62109375 C10.19968128 271.4139712 10.09835327 276.20693854 10 281 C6.04822168 281.3099434 3.62759709 281.33868474 0.10009766 279.43505859 C-2.69997913 276.18837575 -2.61317091 274.29160932 -2.6015625 270.0390625 C-2.60956879 269.37087494 -2.61757507 268.70268738 -2.62582397 268.01425171 C-2.64884813 265.88388074 -2.63945987 263.75542123 -2.625 261.625 C-2.62113838 259.50207677 -2.62472029 257.3800013 -2.64559937 255.25717163 C-2.66315849 253.32598716 -2.65574307 251.39462329 -2.64697266 249.46337891 C-3.03257239 245.68044815 -4.1743851 243.29984866 -6 240 C-6 239.34 -6 238.68 -6 238 C-6.86238281 237.78214844 -7.72476563 237.56429687 -8.61328125 237.33984375 C-12.57646024 235.77194249 -15.18355583 233.482684 -18.1875 230.5625 C-18.70763672 230.07201172 -19.22777344 229.58152344 -19.76367188 229.07617188 C-21.18699312 227.72919737 -22.59418884 226.36523941 -24 225 C-24.61488281 224.43152344 -25.22976562 223.86304688 -25.86328125 223.27734375 C-27 222 -27 222 -27 220 C-27.66 220 -28.32 220 -29 220 C-32.26113985 216.21564431 -35.09937635 212.06587598 -38 208 C-38.47808105 207.33145996 -38.95616211 206.66291992 -39.44873047 205.97412109 C-40.93439959 203.88558591 -42.40707445 201.78853755 -43.875 199.6875 C-44.33898193 199.03072266 -44.80296387 198.37394531 -45.28100586 197.69726562 C-48.11407077 193.59338501 -50.16373779 189.6366975 -52 185 C-52.58201172 183.71029297 -52.58201172 183.71029297 -53.17578125 182.39453125 C-57.03935585 173.61850784 -59.66679272 164.52736968 -62.30151367 155.32666016 C-62.82126956 153.59535165 -63.42067508 151.88756534 -64.06005859 150.19677734 C-65.13922634 146.52648579 -65.34025824 143.10440549 -65.37109375 139.3125 C-65.38211624 138.58099731 -65.39313873 137.84949463 -65.40449524 137.0958252 C-65.43130748 134.73034447 -65.43761949 132.365626 -65.4375 130 C-65.43923218 129.19409424 -65.44096436 128.38818848 -65.44274902 127.55786133 C-65.43007143 114.14229367 -64.02794146 101.85609887 -60 89 C-59.67773438 87.87980469 -59.35546875 86.75960937 -59.0234375 85.60546875 C-58.1237191 82.68333987 -57.09622672 79.85396956 -56 77 C-55.67273926 76.10015381 -55.67273926 76.10015381 -55.33886719 75.18212891 C-49.41843081 58.97904018 -40.57277867 41.93777308 -29 29 C-28.34 29 -27.68 29 -27 29 C-26.73832031 28.41992188 -26.47664063 27.83984375 -26.20703125 27.2421875 C-24.9294858 24.86901245 -23.49414053 23.1199157 -21.6875 21.125 C-19.56952779 18.76733957 -17.53821479 16.41980833 -15.5625 13.9375 C-10.96099452 8.66260347 -5.50660777 4.30203732 0 0 Z " fill="#6CA539" transform="translate(249,103)"/>
<path d="M0 0 C2.125 0.9375 2.125 0.9375 4 2 C4 3.65 4 5.3 4 7 C4.70125 7.04125 5.4025 7.0825 6.125 7.125 C10.0546409 8.32097767 12.59800507 10.6817802 15 14 C15 14.99 15 15.98 15 17 C16.32 17.33 17.64 17.66 19 18 C19 18.99 19 19.98 19 21 C19.72960937 20.88914063 20.45921875 20.77828125 21.2109375 20.6640625 C24 21 24 21 26.2890625 23.2109375 C43.07540666 45.94829331 56.76045573 70.9632333 62 99 C62.20496094 100.0828125 62.40992188 101.165625 62.62109375 102.28125 C67.99329942 134.58858338 59.4180906 164.35648816 45 193 C44.34 193 43.68 193 43 193 C42.6596875 194.27230469 42.6596875 194.27230469 42.3125 195.5703125 C40.7660066 199.61144703 38.66473727 202.50981751 36 205.875 C35.54882812 206.46796875 35.09765625 207.0609375 34.6328125 207.671875 C33.47547402 209.157925 32.24300269 210.58482464 31 212 C30.34 212 29.68 212 29 212 C28.75894531 212.57621094 28.51789063 213.15242187 28.26953125 213.74609375 C26.75631943 216.43262674 25.00814596 218.03827269 22.6875 220.0625 C21.92824219 220.73410156 21.16898437 221.40570313 20.38671875 222.09765625 C15.41075699 226.06376652 12.45502053 227.37970709 6 227 C-0.63385249 215.05906552 -0.32948886 203.16048925 -0.4140625 189.83984375 C-0.4328545 187.94765964 -0.45243324 186.0554832 -0.4727478 184.16331482 C-0.52430736 179.12817118 -0.56389415 174.09300064 -0.60089111 169.05773163 C-0.63317977 164.87885336 -0.67280288 160.7000578 -0.71246719 156.52124405 C-0.92655291 133.88940818 -1.07019844 111.25904059 -0.99029541 88.62612915 C-0.92422878 69.32323079 -1.26421623 50.03065729 -1.64453125 30.73193359 C-1.66745239 29.56519104 -1.69037354 28.39844849 -1.71398926 27.1963501 C-1.7572219 25.02636161 -1.80163783 22.85639619 -1.84753418 20.6864624 C-1.98102416 14.12329473 -2.02535985 7.56447745 -2 1 C-1.34 0.67 -0.68 0.34 0 0 Z M4 4 C6 5 6 5 6 5 Z " fill="#37812B" transform="translate(253,111)"/>
<path d="M0 0 C1.59389206 2.8388197 2.27136215 4.98093537 2.40664673 8.22727966 C2.44429831 9.05052514 2.48194988 9.87377062 2.52074242 10.72196293 C2.55079683 11.60705256 2.58085125 12.4921422 2.61181641 13.40405273 C2.64933832 14.33464477 2.68686024 15.2652368 2.72551918 16.22402859 C3.06826854 25.38295891 3.16464463 34.54184313 3.19923019 43.70637703 C3.21133352 46.6308453 3.23084279 49.55518541 3.25234985 52.479599 C3.31301163 60.77598799 3.36812189 69.07234768 3.40136719 77.36889648 C3.42241155 82.48960892 3.45775528 87.6100583 3.50212479 92.73061943 C3.51616471 94.66047504 3.52497967 96.59037681 3.52817917 98.52028084 C3.54696777 108.7471 3.74186426 118.1835417 7 128 C7.391875 129.2375 7.78375 130.475 8.1875 131.75 C8.5896875 132.86375 8.5896875 132.86375 9 134 C10.98 134 12.96 134 15 134 C13.68 134.33 12.36 134.66 11 135 C10.21670663 137.79185806 9.8572482 140.32165488 9.79467773 143.21777344 C9.77473251 144.03832214 9.75478729 144.85887085 9.73423767 145.70428467 C9.71752518 146.58046448 9.70081268 147.45664429 9.68359375 148.359375 C9.66281265 149.26375305 9.64203156 150.1681311 9.62062073 151.09991455 C9.5553406 153.98320055 9.49634048 156.8665761 9.4375 159.75 C9.39429429 161.70704044 9.35067935 163.66407188 9.30664062 165.62109375 C9.19968128 170.4139712 9.09835327 175.20693854 9 180 C5.04822168 180.3099434 2.62759709 180.33868474 -0.89990234 178.43505859 C-3.69997913 175.18837575 -3.61317091 173.29160932 -3.6015625 169.0390625 C-3.60956879 168.37087494 -3.61757507 167.70268738 -3.62582397 167.01425171 C-3.64884813 164.88388074 -3.63945987 162.75542123 -3.625 160.625 C-3.62113838 158.50207677 -3.62472029 156.3800013 -3.64559937 154.25717163 C-3.66315849 152.32598716 -3.65574307 150.39462329 -3.64697266 148.46337891 C-4.03257239 144.68044815 -5.1743851 142.29984866 -7 139 C-7 138.34 -7 137.68 -7 137 C-7.66 136.67 -8.32 136.34 -9 136 C-8.34 136 -7.68 136 -7 136 C-6.6861955 132.91679464 -6.37393675 129.83344473 -6.0625 126.75 C-5.93198242 125.46996094 -5.93198242 125.46996094 -5.79882812 124.1640625 C-4.66771282 112.93669582 -3.84183673 101.77094242 -3.53515625 90.48828125 C-3.47755399 88.53938537 -3.41994454 86.59048968 -3.36201572 84.64160347 C-3.30159845 82.59549831 -3.24252715 80.54935801 -3.18377686 78.50320435 C-2.98042527 71.44453151 -2.76444922 64.38625062 -2.54296875 57.328125 C-2.52100182 56.62782732 -2.49903488 55.92752964 -2.47640228 55.20601082 C-1.89397015 36.7922244 -1.01065426 18.3948825 0 0 Z " fill="#B9AB74" transform="translate(250,204)"/>
<path d="M0 0 C0.33 0 0.66 0 1 0 C1.19335938 0.79664063 1.38671875 1.59328125 1.5859375 2.4140625 C3.51794536 10.2865704 3.51794536 10.2865704 6 18 C7.98 18 9.96 18 12 18 C10.68 18.33 9.36 18.66 8 19 C7.21670663 21.79185806 6.8572482 24.32165488 6.79467773 27.21777344 C6.77473251 28.03832214 6.75478729 28.85887085 6.73423767 29.70428467 C6.70916893 31.01855438 6.70916893 31.01855438 6.68359375 32.359375 C6.66281265 33.26375305 6.64203156 34.1681311 6.62062073 35.09991455 C6.5553406 37.98320055 6.49634048 40.8665761 6.4375 43.75 C6.39429429 45.70704044 6.35067935 47.66407188 6.30664062 49.62109375 C6.19968128 54.4139712 6.09835327 59.20693854 6 64 C3.69 64 1.38 64 -1 64 C-1 56.41 -1 48.82 -1 41 C-1.66 41 -2.32 41 -3 41 C-2.21889502 11.65458453 -2.21889502 11.65458453 0 0 Z " fill="#AD946B" transform="translate(253,320)"/>
<path d="M0 0 C0.33 0 0.66 0 1 0 C1.02328539 7.78069918 1.040997 15.56139002 1.05181217 23.3421154 C1.05700583 26.95595414 1.06403873 30.56976884 1.07543945 34.18359375 C1.08639442 37.67843992 1.09230325 41.17326312 1.09487724 44.66812515 C1.09759354 46.63429777 1.10538507 48.6004613 1.11329651 50.56661987 C1.11368079 56.77628081 0.95661551 62.84692075 0.17259216 69.01077271 C-0.06799934 71.78373288 0.46780818 74.2799085 1 77 C1.20014069 80.66183338 1.16335635 84.1129361 0.49780273 87.72705078 C-0.0063918 91.04202473 -0.11361265 94.14134445 -0.09765625 97.4921875 C-0.09443359 98.69101562 -0.09121094 99.88984375 -0.08789062 101.125 C-0.07951172 102.3625 -0.07113281 103.6 -0.0625 104.875 C-0.05798828 106.13570313 -0.05347656 107.39640625 -0.04882812 108.6953125 C-0.0370796 111.79692386 -0.02065167 114.89843725 0 118 C-0.99 118.495 -0.99 118.495 -2 119 C-2.01458252 118.09233887 -2.02916504 117.18467773 -2.04418945 116.24951172 C-2.10548149 112.8609069 -2.17967576 109.47308311 -2.26245117 106.08496094 C-2.29557135 104.62250292 -2.32364305 103.15992105 -2.34643555 101.69726562 C-2.38022175 99.58670597 -2.4325438 97.47726814 -2.48828125 95.3671875 C-2.51446533 94.09987793 -2.54064941 92.83256836 -2.56762695 91.52685547 C-3.03040163 87.75201474 -4.17910737 85.30504277 -6 82 C-6 81.34 -6 80.68 -6 80 C-6.66 79.67 -7.32 79.34 -8 79 C-7.34 79 -6.68 79 -6 79 C-5.6861955 75.91679464 -5.37393675 72.83344473 -5.0625 69.75 C-4.93198242 68.46996094 -4.93198242 68.46996094 -4.79882812 67.1640625 C-4.52473329 64.44341746 -4.26082838 61.72194755 -4 59 C-3.9160498 58.15638916 -3.83209961 57.31277832 -3.74560547 56.44360352 C-2.67013799 44.78288416 -2.35102725 33.06303477 -1.875 21.3659668 C-1.75372476 18.40917226 -1.62718427 15.45263913 -1.5 12.49609375 C-1.46455078 11.58677597 -1.42910156 10.67745819 -1.39257812 9.74058533 C-1.35583984 8.89863113 -1.31910156 8.05667694 -1.28125 7.18920898 C-1.23581055 6.08101051 -1.23581055 6.08101051 -1.18945312 4.95042419 C-1 3 -1 3 0 0 Z " fill="#C2BB7C" transform="translate(249,261)"/>
<path d="M0 0 C1.59311885 2.8381113 2.27216718 4.98256992 2.41062927 8.22782898 C2.44888101 9.05117391 2.48713274 9.87451883 2.52654362 10.72281361 C2.55702006 11.60794478 2.58749651 12.49307596 2.61889648 13.4050293 C2.656566 14.33549167 2.69423552 15.26595404 2.73304653 16.22461224 C3.10826724 26.32233479 3.12661544 36.4163438 3.09765625 46.51953125 C3.0957839 48.48491886 3.09436388 50.45030694 3.09336853 52.41569519 C3.08960757 57.51013551 3.07983478 62.60454587 3.06866455 67.69897461 C3.05830974 72.92886958 3.05384123 78.15876954 3.04882812 83.38867188 C3.03820456 93.59246085 3.02120866 103.79622791 3 114 C2.67 114 2.34 114 2 114 C1.67 89.25 1.34 64.5 1 39 C0.34 45.93 -0.32 52.86 -1 60 C-1.33 60 -1.66 60 -2 60 C-2.14086666 46.40147651 -1.7218415 32.89062926 -1 19.3125 C-0.90320449 17.42385069 -0.8068484 15.53517881 -0.7109375 13.64648438 C-0.47899458 9.09738153 -0.24120744 4.54862063 0 0 Z " fill="#94AC5E" transform="translate(250,204)"/>
<path d="M0 0 C0.66 0.66 1.32 1.32 2 2 C2.66 1.67 3.32 1.34 4 1 C3.38644969 4.9644789 1.40143734 7.5524654 -0.9375 10.75 C-1.64777344 11.73484375 -2.35804688 12.7196875 -3.08984375 13.734375 C-3.72019531 14.48203125 -4.35054688 15.2296875 -5 16 C-5.66 16 -6.32 16 -7 16 C-7.24105469 16.57621094 -7.48210937 17.15242188 -7.73046875 17.74609375 C-9.24368057 20.43262674 -10.99185404 22.03827269 -13.3125 24.0625 C-14.07175781 24.73410156 -14.83101563 25.40570313 -15.61328125 26.09765625 C-20.58924301 30.06376652 -23.54497947 31.37970709 -30 31 C-34.59225513 22.738041 -34.59225513 22.738041 -34 18 C-32.29159719 19.63412443 -31.06546953 20.86906094 -30 23 C-29.34 23.99 -28.68 24.98 -28 26 C-28 26.99 -28 27.98 -28 29 C-26.68 28.67 -25.36 28.34 -24 28 C-23.67 26.68 -23.34 25.36 -23 24 C-20.03 23.67 -17.06 23.34 -14 23 C-13.7525 22.195625 -13.505 21.39125 -13.25 20.5625 C-12 18 -12 18 -9.875 17.1875 C-9.25625 17.125625 -8.6375 17.06375 -8 17 C-8 16.34 -8 15.68 -8 15 C-7.34 15 -6.68 15 -6 15 C-4.16308743 11.21812119 -3.84162374 9.05431692 -5 5 C-2.525 5.495 -2.525 5.495 0 6 C-0.185625 5.195625 -0.37125 4.39125 -0.5625 3.5625 C-0.706875 2.716875 -0.85125 1.87125 -1 1 C-0.67 0.67 -0.34 0.34 0 0 Z " fill="#366B3F" transform="translate(289,307)"/>
<path d="M0 0 C0.66 0.33 1.32 0.66 2 1 C1.67 3.31 1.34 5.62 1 8 C0.443125 7.7525 -0.11375 7.505 -0.6875 7.25 C-3.19752467 6.73700679 -3.19752467 6.73700679 -5.6875 8.6875 C-8.13537371 10.71527852 -8.13537371 10.71527852 -8.4375 13.0625 C-8.623125 13.701875 -8.80875 14.34125 -9 15 C-9.94875 15.45375 -10.8975 15.9075 -11.875 16.375 C-15.73009935 18.37965166 -16.1654404 20.17135388 -18 24 C-19.63631892 25.04892238 -21.30485863 26.04906703 -23 27 C-24.34736973 28.65533995 -25.68334336 30.32012773 -27 32 C-27.66 32 -28.32 32 -29 32 C-29 32.66 -29 33.32 -29 34 C-29.66 34 -30.32 34 -31 34 C-31.495 36.475 -31.495 36.475 -32 39 C-33.98 39.495 -33.98 39.495 -36 40 C-31.3627685 31.6849642 -31.3627685 31.6849642 -29 29 C-28.34 29 -27.68 29 -27 29 C-26.73832031 28.41992188 -26.47664062 27.83984375 -26.20703125 27.2421875 C-24.9294858 24.86901245 -23.49414053 23.1199157 -21.6875 21.125 C-19.56952779 18.76733957 -17.53821479 16.41980833 -15.5625 13.9375 C-10.96099452 8.66260347 -5.50660777 4.30203732 0 0 Z " fill="#8DB45D" transform="translate(249,103)"/>
<path d="M0 0 C2.46005504 3.69008255 4.31047592 7.58704589 5 12 C4.814375 12.86625 4.62875 13.7325 4.4375 14.625 C4.2209375 15.800625 4.2209375 15.800625 4 17 C4.66 17.66 5.32 18.32 6 19 C5.67 19.99 5.34 20.98 5 22 C5.66 22.66 6.32 23.32 7 24 C7.37890625 26.09375 7.37890625 26.09375 7.5625 28.5 C7.81036169 31.87644563 7.81036169 31.87644563 9 35 C8.34 35.66 7.68 36.32 7 37 C2.12907284 25.32955522 -0.82443861 12.70246148 0 0 Z " fill="#6B944A" transform="translate(185,238)"/>
<path d="M0 0 C2.62124996 0.11021709 4.42836909 0.48622567 6.40869141 2.26611328 C7.93205665 3.99224549 9.38008607 5.76017698 10.8125 7.5625 C11.86328563 8.83938347 12.91667224 10.11413099 13.97265625 11.38671875 C14.4845752 12.00595215 14.99649414 12.62518555 15.52392578 13.26318359 C18.46439475 16.7230738 21.70594422 19.88033541 25 23 C23.68 23.33 22.36 23.66 21 24 C20.67 23.01 20.34 22.02 20 21 C19.01 20.67 18.02 20.34 17 20 C15.97388051 18.34928604 14.97691857 16.68029994 14 15 C12.2287382 12.64477775 12.2287382 12.64477775 10 11 C7.33165034 10.66501699 7.33165034 10.66501699 5 11 C5 9.02 5 7.04 5 5 C3.35 4.67 1.7 4.34 0 4 C0 2.68 0 1.36 0 0 Z " fill="#5AA141" transform="translate(251,108)"/>
<path d="M0 0 C0.33 0 0.66 0 1 0 C2.15232981 12.35360037 1.93346859 24.54968562 1.5625 36.9375 C1.50912559 38.89256076 1.45638703 40.84763898 1.40429688 42.80273438 C1.27684408 47.53538913 1.1408472 52.26772572 1 57 C0.67 57 0.34 57 0 57 C-0.14398209 50.63203317 -0.28620333 44.2640287 -0.42724609 37.89599609 C-0.47535068 35.73322679 -0.52384665 33.57046615 -0.57275391 31.40771484 C-0.64330265 28.28485316 -0.71240683 25.1619622 -0.78125 22.0390625 C-0.80312378 21.08448151 -0.82499756 20.12990051 -0.84753418 19.14639282 C-0.90661306 16.4309932 -0.95663513 13.71569411 -1 11 C-1.01603271 10.05114929 -1.03206543 9.10229858 -1.04858398 8.12469482 C-1.06223999 6.76238739 -1.06223999 6.76238739 -1.07617188 5.37255859 C-1.08579956 4.55564545 -1.09542725 3.7387323 -1.10534668 2.89706421 C-1 1 -1 1 0 0 Z " fill="#7CBB44" transform="translate(250,117)"/>
<path d="M0 0 C0.66 0.33 1.32 0.66 2 1 C1.67 3.31 1.34 5.62 1 8 C0.443125 7.7525 -0.11375 7.505 -0.6875 7.25 C-3.19752467 6.73700679 -3.19752467 6.73700679 -5.6875 8.6875 C-7.9454988 10.9454988 -8.66785849 11.90001254 -9 15 C-11.97 14.505 -11.97 14.505 -15 14 C-13.8795571 12.8795571 -12.75876801 11.75945922 -11.63671875 10.640625 C-10.40509924 9.40606606 -9.17955762 8.16543911 -7.95703125 6.921875 C-7.24933594 6.20515625 -6.54164063 5.4884375 -5.8125 4.75 C-5.13832031 4.06421875 -4.46414062 3.3784375 -3.76953125 2.671875 C-2 1 -2 1 0 0 Z " fill="#95C05D" transform="translate(249,103)"/>
<path d="M0 0 C1.70840281 1.63412443 2.93453047 2.86906094 4 5 C4.99 6.485 4.99 6.485 6 8 C6 8.99 6 9.98 6 11 C7.32 10.67 8.64 10.34 10 10 C10.33 8.68 10.66 7.36 11 6 C12.32 6 13.64 6 15 6 C15 6.66 15 7.32 15 8 C14.01 8.66 13.02 9.32 12 10 C11.67 10.99 11.34 11.98 11 13 C8.69 13 6.38 13 4 13 C-0.59225513 4.738041 -0.59225513 4.738041 0 0 Z " fill="#2F5D23" transform="translate(255,325)"/>
<path d="M0 0 C1.43893585 2.87787171 0.4606005 4.40291191 -0.375 7.5 C-2.96900435 18.79990935 -2.76432329 30.45574763 -3 42 C-3.33 42 -3.66 42 -4 42 C-4.04988404 37.6075182 -4.08594581 33.21519176 -4.10986328 28.82250977 C-4.1198467 27.3319206 -4.13343822 25.84135064 -4.15087891 24.35083008 C-4.33306933 8.36629933 -4.33306933 8.36629933 -2 1 C-1.34 0.67 -0.68 0.34 0 0 Z " fill="#EEFBE7" transform="translate(187,198)"/>
<path d="M0 0 C3.65668965 3.32960044 6.14166244 7.03709969 8.75 11.1875 C9.16121094 11.82880859 9.57242187 12.47011719 9.99609375 13.13085938 C13 17.85627336 13 17.85627336 13 19 C11.35 19 9.7 19 8 19 C7.67 18.01 7.34 17.02 7 16 C6.34 15.67 5.68 15.34 5 15 C4.31974363 13.00458132 3.65509503 11.00382009 3 9 C2.46375 8.13375 1.9275 7.2675 1.375 6.375 C0 4 0 4 0 0 Z " fill="#4E8E42" transform="translate(283,141)"/>
<path d="M0 0 C0.66 0 1.32 0 2 0 C3.93915661 10.76924476 4.22256188 21.09446805 4 32 C3.67 32 3.34 32 3 32 C2.92652344 30.65808594 2.92652344 30.65808594 2.8515625 29.2890625 C2.45022461 22.79846014 1.82806962 16.60947445 0.41015625 10.265625 C-0.2165764 6.80367324 -0.12996656 3.5090972 0 0 Z " fill="#608D5A" transform="translate(313,210)"/>
<path d="M0 0 C3.48876433 5.2331465 4.26370932 9.19850673 4.4140625 15.48828125 C4.44311172 16.5430793 4.44311172 16.5430793 4.4727478 17.6191864 C4.53220183 19.85017019 4.57879049 22.08120654 4.625 24.3125 C4.66321137 25.83140186 4.70226492 27.35028278 4.7421875 28.86914062 C4.83787416 32.57923467 4.92203072 36.28948651 5 40 C4.01 40.495 4.01 40.495 3 41 C2.98541748 40.09233887 2.97083496 39.18467773 2.95581055 38.24951172 C2.89451851 34.8609069 2.82032424 31.47308311 2.73754883 28.08496094 C2.70442865 26.62250292 2.67635695 25.15992105 2.65356445 23.69726562 C2.61977825 21.58670597 2.5674562 19.47726814 2.51171875 17.3671875 C2.48553467 16.09987793 2.45935059 14.83256836 2.43237305 13.52685547 C1.96959837 9.75201474 0.82089263 7.30504277 -1 4 C-1 3.34 -1 2.68 -1 2 C-1.66 1.67 -2.32 1.34 -3 1 C-2.01 0.67 -1.02 0.34 0 0 Z " fill="#C9C19A" transform="translate(244,339)"/>
<path d="M0 0 C0.99 0.33 1.98 0.66 3 1 C3 1.99 3 2.98 3 4 C4.2065625 4.309375 4.2065625 4.309375 5.4375 4.625 C6.283125 5.07875 7.12875 5.5325 8 6 C8.8125 9.125 8.8125 9.125 9 12 C4.41604442 11.16110617 1.6288372 8.80226281 -1 5 C-0.875 2.125 -0.875 2.125 0 0 Z " fill="#639247" transform="translate(225,322)"/>
<path d="M0 0 C0.33 0.66 0.66 1.32 1 2 C0.22265625 3.9453125 0.22265625 3.9453125 -0.9375 6.125 C-1.31777344 6.84945313 -1.69804687 7.57390625 -2.08984375 8.3203125 C-2.54037109 9.15175781 -2.54037109 9.15175781 -3 10 C-4.32 9.67 -5.64 9.34 -7 9 C-7 6.36 -7 3.72 -7 1 C-3.535 0.505 -3.535 0.505 0 0 Z " fill="#29662B" transform="translate(304,287)"/>
<path d="M0 0 C0.66 0.66 1.32 1.32 2 2 C2.66 1.67 3.32 1.34 4 1 C3.38545304 4.99455527 1.29353263 7.74466336 -1 11 C-2.32 10.34 -3.64 9.68 -5 9 C-5 7.68 -5 6.36 -5 5 C-2.525 5.495 -2.525 5.495 0 6 C-0.2784375 4.7934375 -0.2784375 4.7934375 -0.5625 3.5625 C-0.706875 2.716875 -0.85125 1.87125 -1 1 C-0.67 0.67 -0.34 0.34 0 0 Z " fill="#2A642F" transform="translate(289,307)"/>
<path d="M0 0 C0.96846689 2.61486062 1.04559628 3.8442127 0.25 6.5625 C-0.95085174 8.9041609 -2.16988456 10.16988456 -4 12 C-4 12.99 -4 13.98 -4 15 C-5.65 15.33 -7.3 15.66 -9 16 C-8.06385433 14.27009975 -7.12602042 12.54111304 -6.1875 10.8125 C-5.66542969 9.84957031 -5.14335937 8.88664063 -4.60546875 7.89453125 C-3.12536134 5.22601643 -1.58662491 2.60625773 0 0 Z " fill="#83AD59" transform="translate(212,143)"/>
<path d="M0 0 C-0.33 0.99 -0.66 1.98 -1 3 C-1.639375 3.28875 -2.27875 3.5775 -2.9375 3.875 C-5.25317732 4.84645895 -5.25317732 4.84645895 -5.9375 7.5 C-7 10 -7 10 -9.625 11.3125 C-10.40875 11.539375 -11.1925 11.76625 -12 12 C-10.42173348 5.37128061 -7.14017328 0 0 0 Z " fill="#8BB64D" transform="translate(238,117)"/>
<path d="M0 0 C0.66 0 1.32 0 2 0 C2.33 5.94 2.66 11.88 3 18 C2.01 18 1.02 18 0 18 C0 12.06 0 6.12 0 0 Z " fill="#B69D69" transform="translate(250,361)"/>
<path d="M0 0 C2 2 2 2 2 6 C2.99 6 3.98 6 5 6 C5 6.99 5 7.98 5 9 C5.66 9 6.32 9 7 9 C6.67 10.98 6.34 12.96 6 15 C6.66 15.33 7.32 15.66 8 16 C7.01 16 6.02 16 5 16 C4.566875 14.96875 4.13375 13.9375 3.6875 12.875 C2.64220793 10.40430966 1.52768612 8.12284565 0.25 5.75 C-1 3 -1 3 0 0 Z " fill="#709656" transform="translate(195,279)"/>
<path d="M0 0 C1.79874501 2.69811751 2.89479109 4.97909564 4 8 C4.2475 8.66 4.495 9.32 4.75 10 C5.09411327 12.75290618 4.1655482 14.53178028 3 17 C0.19499035 12.79248553 -0.12829139 9.75014586 -0.0625 4.75 C-0.05347656 3.85796875 -0.04445312 2.9659375 -0.03515625 2.046875 C-0.02355469 1.37140625 -0.01195312 0.6959375 0 0 Z " fill="#629145" transform="translate(185,238)"/>
<path d="M0 0 C2.86724686 0.57344937 3.8614515 0.8614515 6 3 C6.99 3.33 7.98 3.66 9 4 C9.33 5.65 9.66 7.3 10 9 C8.68 9 7.36 9 6 9 C4.296875 7.03125 4.296875 7.03125 2.75 4.5 C2.22921875 3.6646875 1.7084375 2.829375 1.171875 1.96875 C0.78515625 1.3190625 0.3984375 0.669375 0 0 Z " fill="#628D45" transform="translate(211,310)"/>
<path d="M0 0 C5 5 10 10 15 15 C13.68 15.33 12.36 15.66 11 16 C10.67 15.01 10.34 14.02 10 13 C9.01 12.67 8.02 12.34 7 12 C5.97388051 10.34928604 4.97691857 8.68029994 4 7 C3.278125 6.29875 2.55625 5.5975 1.8125 4.875 C0 3 0 3 0 0 Z " fill="#5D994B" transform="translate(261,116)"/>
<path d="M0 0 C1.41377341 2.63904371 2.37240135 5.07120629 3 8 C2.01 8.33 1.02 8.66 0 9 C-1.5625 7.8125 -1.5625 7.8125 -3 6 C-2.8125 3.375 -2.8125 3.375 -2 1 C-1.34 0.67 -0.68 0.34 0 0 Z " fill="#598E36" transform="translate(204,288)"/>
<path d="M0 0 C0.33 0 0.66 0 1 0 C2.32854177 5.9180497 1.66464729 8.77729131 -1 14 C-1.33 14 -1.66 14 -2 14 C-2.1799928 8.78020872 -1.97094808 4.92737019 0 0 Z " fill="#709B4C" transform="translate(189,194)"/>
<path d="M0 0 C0.99 1.32 1.98 2.64 3 4 C2.01 5.485 2.01 5.485 1 7 C0.34 7 -0.32 7 -1 7 C-1.33 8.65 -1.66 10.3 -2 12 C-2.66 12 -3.32 12 -4 12 C-3.52309796 10.37433394 -3.04340334 8.74948689 -2.5625 7.125 C-2.29566406 6.22007812 -2.02882812 5.31515625 -1.75390625 4.3828125 C-1 2 -1 2 0 0 Z " fill="#79A450" transform="translate(197,170)"/>
<path d="M0 0 C0.99 0.33 1.98 0.66 3 1 C3.21192221 6.19209404 2.5912689 10.126739 1 15 C0.67 15 0.34 15 0 15 C0 10.05 0 5.1 0 0 Z " fill="#6B9849" transform="translate(185,210)"/>
<path d="M0 0 C3.67033927 3.27708863 5.69281189 6.71522208 8 11 C4.77204678 10.04033823 3.25871639 9.33900769 1.1875 6.625 C0 4 0 4 0 0 Z " fill="#58924A" transform="translate(283,141)"/>
<path d="M0 0 C1.125 1.75 1.125 1.75 2 4 C1.07451225 6.69933926 0.57626463 7.71186768 -2 9 C-2.33 6.69 -2.66 4.38 -3 2 C-2.01 2 -1.02 2 0 2 C0 1.34 0 0.68 0 0 Z " fill="#408A32" transform="translate(299,167)"/>
<path d="M0 0 C2.46278801 2.46278801 2.99771255 4.70676982 4 8 C5.98 8 7.96 8 10 8 C7.42786866 9.61949011 6.32330841 10.04408751 3.25 9.625 C2.13625 9.315625 2.13625 9.315625 1 9 C0.67 6.03 0.34 3.06 0 0 Z " fill="#7C8254" transform="translate(255,330)"/>
<path d="M0 0 C1.32 0 2.64 0 4 0 C4 0.66 4 1.32 4 2 C3.01 2.66 2.02 3.32 1 4 C0.67 4.99 0.34 5.98 0 7 C-1.65 7 -3.3 7 -5 7 C-5 6.34 -5 5.68 -5 5 C-3.68 4.67 -2.36 4.34 -1 4 C-0.67 2.68 -0.34 1.36 0 0 Z " fill="#1F5D28" transform="translate(266,331)"/>
<path d="M0 0 C1.65 0 3.3 0 5 0 C4.1875 2.9375 4.1875 2.9375 3 6 C2.01 6.33 1.02 6.66 0 7 C0 4.69 0 2.38 0 0 Z " fill="#A18462" transform="translate(256,340)"/>
<path d="M0 0 C0.33 0.66 0.66 1.32 1 2 C-0.49739583 3.23697917 -1.99479167 4.47395833 -3.4921875 5.7109375 C-4.71051161 6.75250992 -5.86660097 7.86660097 -7 9 C-8.125 5.25 -8.125 5.25 -7 3 C-4.69034152 1.94647157 -2.3570226 0.94280904 0 0 Z " fill="#E6EDDF" transform="translate(268,336)"/>
<path d="M0 0 C0.99 0.33 1.98 0.66 3 1 C3 1.99 3 2.98 3 4 C3.66 4.33 4.32 4.66 5 5 C3.35 5.33 1.7 5.66 0 6 C-1.125 2.25 -1.125 2.25 0 0 Z " fill="#5D923C" transform="translate(225,322)"/>
<path d="M0 0 C1.32 0 2.64 0 4 0 C4 0.66 4 1.32 4 2 C-1.41176471 6 -1.41176471 6 -4 6 C-3.34 4.68 -2.68 3.36 -2 2 C-1.34 2 -0.68 2 0 2 C0 1.34 0 0.68 0 0 Z " fill="#2F6235" transform="translate(270,331)"/>
<path d="M0 0 C0.99 0 1.98 0 3 0 C4.75 1.75 4.75 1.75 6 4 C5.6875 6.25 5.6875 6.25 5 8 C4.34 8 3.68 8 3 8 C1.92474806 5.34771188 0.90543849 2.71631546 0 0 Z " fill="#5D8D3A" transform="translate(194,277)"/>
<path d="M0 0 C0.33 0 0.66 0 1 0 C1.08131463 1.43655854 1.13933559 2.8744483 1.1875 4.3125 C1.23970703 5.51326172 1.23970703 5.51326172 1.29296875 6.73828125 C0.93801608 9.47851584 0.10633718 10.29171079 -2 12 C-1 3.42857143 -1 3.42857143 0 0 Z " fill="#C7E1C7" transform="translate(313,262)"/>
<path d="M0 0 C2.31 0.33 4.62 0.66 7 1 C7.33 1.99 7.66 2.98 8 4 C5.125 3.6875 5.125 3.6875 2 3 C1.34 2.01 0.68 1.02 0 0 Z " fill="#74985C" transform="translate(235,336)"/>
<path d="M0 0 C0.66 0.33 1.32 0.66 2 1 C1.45276317 4.37462715 0.9451 6.08235 -1 9 C-1.09765625 2.84765625 -1.09765625 2.84765625 -1 1 C-0.67 0.67 -0.34 0.34 0 0 Z " fill="#5C9437" transform="translate(188,246)"/>
</svg>
